<svg width="32" height="32" viewBox="0 0 32 32" fill="none" xmlns="http://www.w3.org/2000/svg">
<mask id="mask0_3212_1772" style="mask-type:luminance" maskUnits="userSpaceOnUse" x="0" y="0" width="32" height="32">
<path d="M31.5165 0H0V32H31.5165V0Z" fill="white"/>
</mask>
<g mask="url(#mask0_3212_1772)">
<path d="M17.3662 5.4803L18.5818 4.2647C20.9689 1.87757 24.8552 1.81849 27.256 4.19186C28.1658 5.09317 28.7704 6.25682 28.9848 7.51934C29.1993 8.78188 29.0128 10.0799 28.4516 11.231C28.1825 11.7809 28.0918 12.4011 28.1922 13.005C28.2927 13.6089 28.5792 14.1664 29.0118 14.5996C29.8074 13.8022 30.438 12.8558 30.8677 11.8146C31.2974 10.7734 31.5178 9.65769 31.5162 8.53129C31.5145 7.40491 31.2911 6.28986 30.8585 5.24987C30.4258 4.20986 29.7924 3.2653 28.9947 2.47013C25.6375 -0.868117 20.1881 -0.801687 16.8404 2.54594L5.25362 14.1324L4.30108 13.1798C1.87347 10.7522 1.858 6.78406 4.32843 4.39959C5.24288 3.51969 6.4079 2.94529 7.6627 2.75569C8.9175 2.56609 10.2002 2.77063 11.3338 3.34108C11.8512 3.60622 12.4392 3.70107 13.0137 3.61208C13.5883 3.5231 14.12 3.25483 14.533 2.84558L14.5625 2.8162C14.5717 2.80707 14.579 2.79621 14.584 2.78423C14.5889 2.77228 14.5915 2.75944 14.5915 2.74648C14.5915 2.73353 14.5889 2.72069 14.584 2.70874C14.579 2.69678 14.5717 2.68592 14.5625 2.67677C12.9677 1.12208 10.8307 0.248817 8.60351 0.241756C6.37635 0.234698 4.23379 1.0944 2.62922 2.63895C-0.827208 5.97564 -0.814857 11.5242 2.58232 14.9214L14.1656 26.5047L12.9352 27.7352C10.5481 30.1223 6.66163 30.1814 4.26091 27.808C3.35118 26.9067 2.74663 25.743 2.53217 24.4805C2.31771 23.218 2.50409 21.9201 3.06516 20.7689C3.33433 20.219 3.42506 19.5987 3.32466 18.9949C3.22425 18.391 2.93772 17.8334 2.50511 17.4003C1.70955 18.1978 1.07891 19.1441 0.649201 20.1852C0.219492 21.2265 -0.000855666 22.3421 0.000741038 23.4686C0.00233775 24.595 0.225848 25.71 0.658508 26.75C1.09117 27.79 1.7245 28.7346 2.5223 29.5297C5.87931 32.8681 11.3288 32.8019 14.6766 29.4541L26.2783 17.8522L27.2345 18.8083C29.6216 21.1954 29.6807 25.0817 27.3073 27.4824C26.406 28.3923 25.2423 28.9967 23.9798 29.2113C22.7174 29.4258 21.4194 29.2393 20.2682 28.6782C19.7181 28.4088 19.0976 28.318 18.4935 28.4187C17.8893 28.5192 17.3316 28.806 16.8985 29.239C17.696 30.0346 18.6423 30.6653 19.6834 31.095C20.7247 31.5247 21.8403 31.7451 22.9668 31.7435C24.0932 31.7418 25.2083 31.5183 26.2482 31.0856C27.2882 30.653 28.2328 30.0196 29.0279 29.2218C32.3664 25.8648 32.2999 20.4153 28.9523 17.0677L17.3662 5.4803ZM15.8953 24.7742L6.98378 15.8627L15.6359 7.21078L24.5474 16.1223L15.8953 24.7742Z" fill="black"/>
</g>
</svg>
